<?xml version="1.0" standalone="no"?>
<!DOCTYPE svg PUBLIC "-//W3C//DTD SVG 20010904//EN"
 "http://www.w3.org/TR/2001/REC-SVG-20010904/DTD/svg10.dtd">
<svg version="1.0" xmlns="http://www.w3.org/2000/svg"
 width="500.000000pt" height="500.000000pt" viewBox="0 0 500.000000 500.000000"
 preserveAspectRatio="xMidYMid meet">

<g transform="translate(0.000000,500.000000) scale(0.100000,-0.100000)"
fill="#000000" stroke="none">
<path d="M2022 4280 c-8 -13 -12 -70 -12 -179 0 -139 -2 -160 -17 -165 -9 -4
-120 -6 -247 -6 -177 0 -247 -3 -301 -16 -38 -9 -76 -16 -82 -17 -7 0 -13 -4
-13 -8 0 -7 -26 -19 -43 -19 -4 0 -13 -4 -20 -10 -6 -5 -52 -30 -102 -56 -49
-25 -102 -59 -117 -74 -27 -28 -28 -32 -28 -149 0 -114 1 -121 26 -150 23 -28
31 -31 84 -31 32 0 62 -4 65 -10 3 -5 13 -87 21 -182 14 -162 27 -292 75 -728
40 -366 101 -978 104 -1043 2 -37 7 -72 10 -77 4 -6 5 -27 4 -48 -2 -21 1 -43
5 -50 4 -7 6 -29 5 -50 -2 -21 0 -42 3 -47 3 -6 11 -71 18 -145 19 -214 39
-263 124 -300 44 -20 67 -20 917 -20 844 0 873 1 916 20 87 39 103 82 128 345
9 99 19 187 22 195 3 8 5 36 4 63 -2 26 1 47 6 47 4 0 9 30 10 68 1 69 64 704
108 1097 32 279 51 466 70 678 8 92 17 172 20 177 4 6 33 10 65 10 53 0 61 3
84 31 25 29 26 36 26 150 0 113 -1 121 -25 147 -14 15 -69 50 -122 77 -54 27
-101 53 -104 58 -3 5 -8 8 -10 6 -8 -4 -49 12 -49 20 0 4 -6 8 -12 8 -7 1 -44
8 -83 17 -54 13 -124 16 -301 16 -127 0 -238 2 -247 6 -15 5 -17 27 -17 168
-1 117 -4 166 -14 178 -12 16 -49 18 -477 18 -451 0 -465 -1 -477 -20z m826
-221 c2 -81 -1 -109 -11 -118 -11 -8 -105 -11 -343 -9 l-329 3 -3 118 -3 117
343 -2 343 -3 3 -106z"/>
</g>
</svg>
