<?xml version="1.0" standalone="no"?>
<!DOCTYPE svg PUBLIC "-//W3C//DTD SVG 20010904//EN"
 "http://www.w3.org/TR/2001/REC-SVG-20010904/DTD/svg10.dtd">
<svg version="1.0" xmlns="http://www.w3.org/2000/svg"
 width="500.000000pt" height="500.000000pt" viewBox="0 0 500.000000 500.000000"
 preserveAspectRatio="xMidYMid meet">

<g transform="translate(0.000000,500.000000) scale(0.100000,-0.100000)"
fill="#000000" stroke="none">
<path d="M2146 3931 c-3 -4 10 -8 27 -9 34 -3 92 -29 202 -92 78 -45 180 -80
231 -80 55 0 127 33 213 98 52 39 94 63 119 67 65 11 68 14 10 11 -48 -2 -67
-9 -114 -42 -110 -75 -119 -81 -158 -94 -71 -23 -142 -8 -288 60 -129 61 -233
96 -242 81z"/>
<path d="M2098 3923 c6 -2 18 -2 25 0 6 3 1 5 -13 5 -14 0 -19 -2 -12 -5z"/>
<path d="M2058 3913 c7 -3 16 -2 19 1 4 3 -2 6 -13 5 -11 0 -14 -3 -6 -6z"/>
<path d="M3060 3902 c140 -48 259 -116 410 -236 47 -37 65 -48 41 -26 -144
133 -358 258 -470 275 -28 4 -23 1 19 -13z"/>
<path d="M1965 3880 c-3 -6 1 -7 9 -4 18 7 21 14 7 14 -6 0 -13 -4 -16 -10z"/>
<path d="M2808 3243 c6 -2 18 -2 25 0 6 3 1 5 -13 5 -14 0 -19 -2 -12 -5z"/>
<path d="M2938 3213 c7 -3 16 -2 19 1 4 3 -2 6 -13 5 -11 0 -14 -3 -6 -6z"/>
<path d="M3011 3196 c8 -8 148 -35 212 -41 34 -3 78 -8 97 -10 27 -4 30 -2 15
5 -11 5 -38 9 -61 9 -22 1 -89 10 -149 21 -119 22 -120 22 -114 16z"/>
<path d="M3498 3153 c7 -3 16 -2 19 1 4 3 -2 6 -13 5 -11 0 -14 -3 -6 -6z"/>
<path d="M3378 3143 c6 -2 18 -2 25 0 6 3 1 5 -13 5 -14 0 -19 -2 -12 -5z"/>
<path d="M2848 3109 c-85 -27 -249 -49 -384 -51 -114 -1 -116 -2 -39 -7 161
-12 338 11 460 58 63 25 39 25 -37 0z"/>
<path d="M2308 3063 c7 -3 16 -2 19 1 4 3 -2 6 -13 5 -11 0 -14 -3 -6 -6z"/>
<path d="M3684 2788 c-9 -18 -24 -44 -33 -58 -9 -13 -11 -21 -4 -17 15 10 66
97 60 104 -3 3 -13 -10 -23 -29z"/>
<path d="M3445 2458 l-40 -43 43 40 c39 36 47 45 39 45 -2 0 -21 -19 -42 -42z"/>
<path d="M1680 2485 c0 -18 150 -159 196 -186 124 -71 204 -84 419 -70 98 7
191 7 240 2 309 -34 305 -34 423 -17 62 9 122 21 135 27 21 9 21 9 -3 3 -76
-18 -291 -16 -460 5 -164 21 -187 21 -356 10 -272 -19 -350 4 -507 152 -48 44
-87 78 -87 74z"/>
<path d="M3345 2377 c-22 -18 -52 -40 -65 -50 -24 -17 -24 -17 8 0 31 17 113
83 102 82 -3 0 -23 -15 -45 -32z"/>
<path d="M3223 2300 c-13 -5 -23 -11 -23 -14 0 -7 40 6 46 15 6 10 6 10 -23
-1z"/>
<path d="M3145 2265 c-25 -12 -26 -14 -5 -9 28 7 60 23 45 23 -5 0 -23 -6 -40
-14z"/>
<path d="M2080 1811 c-30 -10 -73 -27 -96 -39 -50 -25 -113 -94 -93 -101 7 -2
15 1 17 8 16 47 113 110 203 130 61 14 159 13 189 -2 42 -21 38 -57 -12 -106
-48 -46 -216 -161 -235 -161 -10 0 -13 26 -13 95 0 57 -4 95 -10 95 -6 0 -10
-41 -10 -102 0 -96 -2 -104 -26 -129 l-25 -26 25 -7 26 -6 0 -125 c0 -77 4
-125 10 -125 6 0 10 48 10 124 0 69 4 127 9 130 15 10 164 -20 219 -44 56 -24
122 -88 122 -119 0 -14 -17 -23 -87 -41 -179 -46 -340 -125 -412 -200 -16 -18
-37 -51 -46 -74 -15 -39 -15 -47 -2 -79 38 -91 168 -108 307 -40 75 36 188
151 229 230 34 68 65 184 52 193 -4 3 -16 22 -26 44 -32 67 -131 116 -282 139
-43 7 -77 17 -77 22 0 6 53 45 117 87 194 129 235 185 165 228 -43 26 -169 27
-248 1z m315 -595 c-12 -70 -73 -175 -145 -246 -81 -81 -161 -122 -247 -128
-59 -4 -64 -3 -94 27 -29 29 -31 36 -27 82 4 35 14 61 35 87 41 52 148 121
245 160 91 36 218 72 231 65 5 -3 5 -24 2 -47z"/>
<path d="M2875 1667 c-8 -13 -20 -59 -25 -103 -14 -111 -17 -383 -5 -386 6 -2
11 16 13 40 l3 43 29 -31 c35 -37 68 -39 108 -5 29 24 31 25 37 6 9 -30 36
-34 67 -11 28 20 28 20 28 1 0 -40 18 -29 46 26 35 68 59 83 49 30 -4 -19 -4
-45 0 -56 9 -29 49 -27 69 4 22 33 20 43 -2 15 -26 -32 -46 -18 -39 27 3 19 3
41 0 49 -8 22 -41 17 -68 -10 -23 -23 -25 -23 -30 -5 -10 29 -25 23 -25 -11 0
-32 -33 -74 -53 -67 -7 2 -13 25 -15 50 -4 53 -19 62 -29 16 -4 -20 -17 -38
-37 -50 -40 -24 -58 -24 -81 1 -18 20 -18 21 14 50 18 17 31 36 28 43 -7 21
-48 20 -72 -3 l-23 -22 29 113 c36 141 45 219 30 248 -15 27 -27 27 -46 -2z
m35 -46 c0 -60 -36 -248 -46 -238 -5 5 14 235 22 260 10 31 24 18 24 -22z m20
-301 c0 -13 -49 -44 -57 -36 -9 8 27 46 44 46 7 0 13 -4 13 -10z"/>
<path d="M2497 1383 c-4 -3 -7 -11 -7 -17 0 -6 5 -5 12 2 6 6 9 14 7 17 -3 3
-9 2 -12 -2z"/>
<path d="M3050 1374 c0 -8 5 -12 10 -9 6 3 10 10 10 16 0 5 -4 9 -10 9 -5 0
-10 -7 -10 -16z"/>
<path d="M2733 1323 c-7 -2 -13 -17 -13 -32 0 -29 -16 -51 -37 -51 -8 0 -13
13 -13 34 0 60 -63 58 -94 -3 -8 -15 -22 -34 -31 -41 -15 -12 -19 -12 -31 4
-7 11 -11 30 -7 46 3 16 0 31 -7 35 -15 9 -17 6 -25 -35 -5 -27 -2 -42 12 -59
19 -23 20 -23 51 -7 29 15 33 15 38 1 8 -19 58 -20 74 0 7 8 19 15 28 15 8 0
24 8 34 17 25 23 49 2 24 -22 -21 -22 -20 -32 5 -45 27 -15 49 3 49 40 0 16 6
31 13 34 6 3 2 3 -10 0 -16 -4 -26 2 -38 20 -17 26 -12 52 7 40 7 -4 8 -2 4 4
-8 13 -13 14 -33 5z m-83 -43 c0 -11 -4 -20 -10 -20 -5 0 -10 9 -10 20 0 11 5
20 10 20 6 0 10 -9 10 -20z m-14 -59 c-19 -30 -55 1 -42 36 6 15 9 15 28 -4
11 -12 17 -26 14 -32z m134 -10 c0 -12 -20 -25 -27 -18 -7 7 6 27 18 27 5 0 9
-4 9 -9z"/>
</g>
</svg>
